<?xml version="1.0" encoding="UTF-8" standalone="no"?>
<svg
   version="1.0"
   width="600"
   height="600"
   viewBox="0 0 600 600"
   preserveAspectRatio="xMidYMid"
   id="svg19"
   sodipodi:docname="nariz.svg"
   inkscape:version="1.4.3 (0d15f75042, 2025-12-25)"
   inkscape:export-filename="nariz.png"
   inkscape:export-xdpi="96"
   inkscape:export-ydpi="96"
   xmlns:inkscape="http://www.inkscape.org/namespaces/inkscape"
   xmlns:sodipodi="http://sodipodi.sourceforge.net/DTD/sodipodi-0.dtd"
   xmlns="http://www.w3.org/2000/svg"
   xmlns:svg="http://www.w3.org/2000/svg">
  <defs
     id="defs19" />
  <sodipodi:namedview
     id="namedview19"
     pagecolor="#ffffff"
     bordercolor="#000000"
     borderopacity="0.25"
     inkscape:showpageshadow="2"
     inkscape:pageopacity="0.0"
     inkscape:pagecheckerboard="0"
     inkscape:deskcolor="#d1d1d1"
     showgrid="false"
     inkscape:zoom="1.1844409"
     inkscape:cx="169.27818"
     inkscape:cy="319.56005"
     inkscape:window-width="1920"
     inkscape:window-height="1008"
     inkscape:window-x="0"
     inkscape:window-y="0"
     inkscape:window-maximized="1"
     inkscape:current-layer="svg19" />
  <g
     id="g20"
     transform="matrix(1.0898702,0,0,1.0898702,-29.1408,-37.859773)">
    <g
       fill="#000000"
       id="g19"
       clip-path="none"
       transform="matrix(0.93562594,0,0,0.95228911,50.056022,67.262406)"
       sodipodi:insensitive="true">
      <g
         inkscape:groupmode="layer"
         id="layer1"
         inkscape:label="fundo"
         transform="matrix(1.0688032,0,0,1.0501013,-53.500037,-70.632338)">
        <ellipse
           style="fill:#000000;stroke-width:206.619;stroke-dasharray:none"
           id="ellipse20"
           cx="302"
           cy="310"
           rx="263.0444"
           ry="260.78845" />
        <ellipse
           style="fill:#e6e6e6;stroke-width:1.35574"
           id="path20"
           cx="302"
           cy="310"
           rx="257.08331"
           ry="254.87849" />
      </g>
      <path
         d="m 434,452.2 c -1.9,-1.8 -6.3,-5.5 -9.7,-8.2 -3.4,-2.7 -6.4,-5.9 -6.8,-7 -0.6,-1.9 -11.1,-9.3 -16.5,-11.7 -1.4,-0.6 -6.5,-4.1 -11.5,-7.8 -4.9,-3.7 -11.8,-8.1 -15.1,-9.7 -3.4,-1.6 -9.8,-5.2 -14.3,-8.1 -4.4,-2.9 -10.2,-6.5 -12.7,-8.1 -2.6,-1.6 -7.5,-5.3 -10.8,-8.1 -3.4,-2.9 -8.6,-6.8 -11.6,-8.7 -3,-2 -6.4,-4.6 -7.5,-5.8 -1.1,-1.2 -3.3,-2.9 -5,-3.8 -3.3,-1.7 -15.9,-11.7 -18.9,-15.1 l -2,-2.1 -3,2.9 c -4.5,4.3 -7.7,5.2 -21,6.1 -13.1,0.9 -21.8,-0.6 -29.2,-4.9 l -3.7,-2.2 -4.1,3.1 c -2.3,1.7 -5.4,3.9 -7,4.8 -1.6,0.9 -4.8,3.3 -7,5.3 -2.3,2 -5.9,4.8 -8.2,6.2 -2.2,1.4 -7,4.9 -10.5,7.9 -6,5 -9.6,7.5 -18.6,13.1 -2.1,1.3 -6.3,3.9 -9.3,5.9 -3,1.9 -8.1,4.7 -11.2,6.2 -3.1,1.5 -10.7,6.5 -16.9,11.3 -6.2,4.7 -12,8.8 -12.8,9.1 -0.8,0.3 -3.7,2 -6.5,3.9 -2.8,1.8 -5.8,3.3 -6.6,3.3 -1.8,0 -11,5.6 -15.9,9.7 -1.9,1.5 -4.2,3.1 -5.2,3.5 -1.6,0.6 -1.6,0.4 -0.7,-2.5 1.1,-3.1 3.7,-7.1 11.5,-17.1 5.1,-6.6 6.6,-7.9 14.8,-13.3 3.9,-2.6 10.8,-7.5 15.4,-11 4.7,-3.5 11.4,-7.8 15,-9.6 3.7,-1.7 10.1,-5.5 14.5,-8.4 4.3,-2.9 8.1,-5.3 8.5,-5.3 1,0 8.6,-5.4 14.2,-10.2 3,-2.4 7.7,-6 10.4,-7.8 2.8,-1.8 6.9,-5.1 9.2,-7.2 2.4,-2.1 4.7,-3.8 5.2,-3.8 1.2,0 11.6,-8.4 19.3,-15.7 3.1,-2.9 6.1,-5.3 6.7,-5.3 0.6,0 4.1,-2.6 7.8,-5.8 9,-7.8 13.8,-15.5 15.1,-24.7 1.5,-10.3 0.7,-43.7 -1.4,-53.2 -0.9,-4.3 -2,-9.5 -2.4,-11.6 -0.4,-2.1 -2.2,-5.5 -3.9,-7.5 -1.8,-2 -4,-5 -4.9,-6.6 -0.9,-1.6 -4.2,-6.1 -7.3,-10 -3.1,-3.9 -7.7,-10.3 -10.3,-14.3 -2.6,-3.9 -6,-8 -7.6,-9 -1.5,-1 -6.1,-4.6 -10.2,-8.1 -10.2,-8.8 -12.7,-10.8 -17.4,-13.9 -2.3,-1.6 -6.7,-4.5 -9.8,-6.6 -3.1,-2.1 -7.2,-5.2 -9.2,-7 -2.1,-1.7 -6.7,-4.7 -10.4,-6.7 -3.7,-1.9 -10.5,-5.6 -15.1,-8.2 -4.6,-2.5 -11.3,-5.4 -14.9,-6.3 -8.9,-2.2 -15.8,-5.5 -20.1,-9.6 -4.9,-4.5 -6.5,-11.8 -5.1,-22.5 1,-7.1 1.3,-7.7 6.4,-13.3 4,-4.2 6.4,-8.2 9.3,-15 3,-7.2 4.8,-10.1 8.3,-13.2 2.5,-2.1 4.9,-3.9 5.4,-3.9 0.5,0 2.8,-0.9 5.1,-2 2.3,-1.2 9.3,-3.2 15.6,-4.5 6.2,-1.4 11.8,-2.8 12.4,-3.2 1.1,-0.7 6.3,-1.8 19.9,-4.4 5,-1 8,-0.7 24.5,2.1 10.5,1.8 21.8,4.4 25.6,5.9 11.2,4.3 21.2,13.2 22.6,20.2 l 0.7,3.3 2.3,-3.7 c 5,-8 17.8,-15.1 32.6,-18.1 21.5,-4.2 32.2,-5.6 36.6,-4.7 2.4,0.5 7.9,1.6 12.2,2.5 4.4,0.9 8.4,1.9 9,2.3 0.6,0.3 2.7,1 4.6,1.4 14.1,2.9 18.3,4 23.5,6.2 9.8,4.2 13.8,8.3 18.2,18.8 2.7,6.3 5.5,11 9.1,15 11.9,13.3 12.3,28.1 1,37.3 -4.5,3.7 -18,9.6 -21.8,9.6 -2.4,0 -12.4,4.8 -18.4,8.9 -2.3,1.6 -5.8,3.4 -7.6,4 -1.9,0.6 -6.3,3.4 -9.9,6.1 -3.6,2.8 -11,8.1 -16.6,11.8 -5.5,3.8 -10.9,7.6 -12,8.5 -14,12.2 -19.3,16.6 -21,17.5 -1.2,0.6 -4.5,4.6 -7.4,8.9 -6.2,9.1 -14.1,19.2 -22.1,28.3 -9.2,10.5 -10.7,16.6 -11,45 -0.1,11.3 0.1,22.5 0.5,25 0.8,4.8 5.1,14.4 7.3,16.1 0.7,0.7 1.3,1.7 1.3,2.4 0,1.6 12,12.9 15.7,14.9 1.6,0.8 6,4.3 9.8,7.8 9.3,8.4 16.1,13.8 17.5,13.8 0.6,0 3.2,2 5.8,4.3 2.6,2.4 7,5.9 9.7,7.7 2.8,1.8 7.4,5.3 10.3,7.8 5.8,4.9 10.3,8 14.2,10 1.4,0.7 5.2,3 8.5,5.2 3.3,2.2 8,5 10.5,6.3 9.1,4.5 30.7,19.7 36.9,25.8 5.7,5.8 12.1,15 16.8,24.2 5.3,10.7 5.4,13.7 0.3,8.9 z M 278.3,204.6 c 2.1,-2.2 5.9,-7.2 8.5,-11.1 7.3,-10.9 10.2,-14.3 14.3,-17.3 3.7,-2.6 14.1,-11.2 18.7,-15.4 l 2.3,-2.1 -6.3,-3.1 c -8.1,-4 -9.1,-5.9 -8.3,-16.1 1.1,-14.2 2,-17 8.5,-26.4 7.4,-10.8 9.1,-12.4 16,-15 6.9,-2.6 10.1,-2.6 17,0 12.1,4.6 15.1,4.9 27.3,2.9 l 11.1,-2 5.2,-5.1 5.2,-5.1 -3.5,-8.1 c -2,-4.5 -4.2,-9 -5,-9.9 -1.9,-2.1 -15.2,-7.3 -21.3,-8.2 -2.5,-0.4 -7.4,-1.6 -11,-2.6 -17.3,-4.9 -24.6,-5.7 -33,-3.6 -3.6,0.8 -10.8,2.2 -16,2.9 -15.8,2.3 -23.3,6.9 -28.8,17.8 -2,4 -3.7,5.9 -6.6,7.3 -3.6,1.7 -4,1.8 -7.2,0.3 -2,-1 -3.6,-2.6 -4,-4.1 -0.3,-1.3 -1.2,-2.7 -2,-3 -0.8,-0.3 -2.6,-3 -4,-6.1 -5,-10.4 -13.5,-15.4 -31.5,-18.5 -6.3,-1 -14.3,-2.4 -17.9,-3.1 -5.5,-0.9 -7.6,-0.9 -12.9,0.5 -3.4,0.9 -7.3,1.6 -8.6,1.6 -1.2,0 -3.9,0.7 -6,1.6 -2,0.8 -6.2,2 -9.3,2.5 -6.9,1.2 -14.2,3.5 -20.1,6.2 -4,1.9 -4.7,2.8 -8.8,11.5 l -4.3,9.4 4.9,4.9 c 6,5.9 6.6,6.1 20.9,8.4 l 11.2,1.8 6.9,-3.2 c 5.4,-2.5 8.1,-3.1 13.5,-3.1 10.5,0 15.2,2.6 22.6,12.5 7.5,10.1 8.8,13.3 10.1,24.4 1.5,13.2 0.4,19 -4.8,25.1 l -3.6,4.2 5.9,5.4 c 3.2,3 7.1,6.1 8.5,6.8 3.6,2.1 8.5,7.8 15.1,17.6 5.8,8.7 15.8,19.6 19.3,21.1 3.6,1.5 7.9,-0.1 11.8,-4.5 z"
         id="path1" />
      <path
         d="m 449.1,369.1 c -0.8,-0.5 0.7,-0.8 4.2,-0.7 3,0 5.3,0.4 5,0.9 -0.6,1 -7.5,0.9 -9.2,-0.2 z"
         id="path2" />
      <path
         d="m 439.7,367.4 c -1.6,-0.9 -2.7,-2.3 -2.8,-3.7 0,-1.2 -0.3,-3.5 -0.5,-5.1 -0.6,-3.7 2.3,-11.8 5.7,-15.9 2.4,-2.9 3.2,-3.2 8.2,-3.2 6.3,0 8.8,1.5 7.1,4.3 -0.7,1 -2.8,1.9 -5.5,2.2 -3.9,0.4 -4.6,1 -6.6,4.5 -2.5,4.7 -2.9,10.7 -0.8,12.5 3.8,3.1 -0.2,6.8 -4.8,4.4 z"
         id="path3" />
      <path
         d="m 75.6,364.2 c -0.3,-0.5 1.8,-0.9 4.7,-0.9 3.7,-0.1 4.6,0.1 3.2,0.7 -2.6,1.1 -7.3,1.2 -7.9,0.2 z"
         id="path4" />
      <path
         d="m 89.2,361.8 c -1.6,-1.6 -1.5,-3.3 0.3,-4.8 2.2,-1.8 1.8,-7.4 -0.9,-12.2 -2.2,-4 -2.8,-4.3 -7.2,-4.8 -3.8,-0.4 -5,-0.9 -5.2,-2.4 -0.5,-2.6 1.5,-3.6 7.4,-3.6 6,0 7.6,1 10.9,7.3 2,3.8 2.5,6.3 2.5,11.7 0,6 -0.3,7.1 -2.2,8.4 -2.7,1.9 -4,2 -5.6,0.4 z"
         id="path5" />
      <path
         d="m 465,356.4 c 0,-0.2 0.7,-1.5 1.5,-2.8 1.2,-1.8 1.3,-2.9 0.4,-5.4 -0.6,-1.7 -0.9,-3.7 -0.6,-4.4 0.7,-2.2 3,6.9 2.3,9.5 -0.5,2.1 -3.6,4.8 -3.6,3.1 z"
         id="path6" />
      <path
         d="m 65.4,348.5 c -1.3,-2 -1.4,-3 -0.4,-5.9 0.6,-2 1.6,-3.8 2.1,-4.1 1.2,-0.8 1.1,0.5 -0.2,4.4 -0.9,2.5 -0.8,3.6 0.5,5.6 0.9,1.4 1.2,2.5 0.6,2.5 -0.5,0 -1.7,-1.1 -2.6,-2.5 z"
         id="path7" />
      <path
         d="m 463.4,315 c -6.6,-3.8 -9.8,-9.4 -9.8,-17 0,-7.1 2,-11 6.8,-13.3 4.6,-2.2 7,-1.9 7.4,1 0.2,1.5 -0.5,2.7 -2.5,3.9 -4.2,2.6 -5.3,4.4 -5.3,8.3 0,3.6 3.2,10.1 4.9,10.1 1.6,0 7.1,5.1 7.1,6.6 0,3.1 -3.5,3.3 -8.6,0.4 z"
         id="path8" />
      <path
         d="m 476.2,314.3 c 0.9,-0.2 2,-1.7 2.3,-3.4 0.4,-1.6 1.1,-2.9 1.6,-2.9 1.1,0 1.1,0 -0.2,3.9 -0.8,2.2 -1.7,3.1 -3.2,3 -1.6,-0.1 -1.8,-0.2 -0.5,-0.6 z"
         id="path9" />
      <path
         d="m 62.9,310.4 c -1.7,-2.1 -0.3,-4.3 4.3,-6.8 1.9,-1.1 4.2,-3.2 5.1,-4.8 2.8,-5 1.7,-13.8 -1.7,-13.8 -1.7,0 -4.6,-3.3 -4.6,-5.2 0,-2.5 2.7,-2.9 7.3,-0.9 5.3,2.3 6.7,5.2 6.7,13.7 0,8 -2.7,12.9 -9.4,16.8 -5.2,3 -5.9,3.1 -7.7,1 z"
         id="path10" />
      <path
         d="m 54.1,306.3 c -1.4,-5 -0.7,-5.2 1.6,-0.3 1.5,3 1.7,4 0.7,4 -0.7,0 -1.8,-1.7 -2.3,-3.7 z"
         id="path11" />
      <path
         d="m 477.1,290.4 c 0,-1.2 -1.1,-2.8 -2.3,-3.7 -1.3,-0.8 -2,-1.8 -1.7,-2.1 0.3,-0.4 1.6,0.2 2.9,1.2 1.5,1.2 2.1,2.5 1.7,4.2 -0.4,2.2 -0.4,2.2 -0.6,0.4 z"
         id="path12" />
      <path
         d="M 56.1,284.3 C 56,282 58.4,279 60.3,279 c 0.7,0.1 0.2,0.9 -0.9,1.9 -1.2,0.9 -2.4,2.6 -2.7,3.7 -0.4,1.7 -0.5,1.7 -0.6,-0.3 z"
         id="path13" />
      <path
         d="m 450.6,250.5 c -9.4,-3.3 -11.5,-7.3 -11.1,-20.5 0.3,-11.3 3.1,-17.9 9.2,-22.1 4.8,-3.3 7.6,-3.5 8.2,-0.4 0.2,1.3 -1,3.1 -3.9,5.5 -2.5,2.1 -4.8,5.2 -5.6,7.5 -1.4,4.2 -1.9,18.2 -0.6,20.1 1.1,1.8 4.7,3.3 10.2,4.5 5.4,1.2 7,2.9 5,5.4 -1.5,1.9 -6.3,1.9 -11.4,0 z"
         id="path14" />
      <path
         d="m 72.3,245.4 c -2.4,-1.1 -1.4,-4.3 1.5,-5 13.5,-3 14.2,-3.7 14.2,-14.3 0,-10.3 -1.3,-13.8 -6.8,-18.8 -3.9,-3.5 -4.5,-4.5 -3.6,-6 1.7,-2.7 2.9,-2.6 7.5,0.9 6.3,4.8 9.2,11.1 9.7,21.5 0.6,11.6 -1.2,16.3 -7.5,19.3 -4.6,2.1 -12.7,3.4 -15,2.4 z"
         id="path15" />
      <path
         d="m 470,245.5 c 0,-0.3 0.9,-1.6 2,-2.8 1.1,-1.2 2.5,-3.5 2.9,-5.2 l 0.9,-3 0.1,3.1 c 0.1,1.8 -0.8,4.3 -2,5.8 -1.8,2.3 -3.9,3.4 -3.9,2.1 z"
         id="path16" />
      <path
         d="m 59.7,237.1 c -0.9,-1.6 -1.7,-4.2 -1.7,-5.8 0.1,-2.6 0.2,-2.6 1.4,1 0.8,2.1 2.2,4.7 3.2,5.8 1.4,1.5 1.4,1.9 0.3,1.9 -0.8,0 -2.2,-1.3 -3.2,-2.9 z"
         id="path17" />
      <path
         d="m 464.7,209 c -1.8,-1.9 -2.3,-3 -1.4,-3 1.3,0 3.6,2.1 5.1,4.8 1.3,2.2 -0.8,1.2 -3.7,-1.8 z"
         id="path18" />
      <path
         d="m 66.6,203.5 c 0.9,-1.4 2.5,-2.5 3.5,-2.5 1.6,0 1.5,0.3 -0.7,2.5 -1.4,1.4 -2.9,2.5 -3.5,2.5 -0.5,0 -0.2,-1.1 0.7,-2.5 z"
         id="path19" />
    </g>
  </g>
</svg>
